<?xml version="1.0" encoding="UTF-8" standalone="no"?>
<svg
   viewBox="0 0 512 512"
   role="img"
   aria-label="LumenSpire logo"
   version="1.1"
   id="svg1"
   xmlns="http://www.w3.org/2000/svg"
   xmlns:svg="http://www.w3.org/2000/svg"
   shape-rendering="geometricPrecision">
<path
     d="m 232,322 c 0.42236,5.78151 0.91834,11.53254 2.73607,16.73607 1.16016,4.86282 2.1634,9.79063 4.26393,14.26393 0.2328,5.60758 4.30454,9.62502 5.73607,14.73607 2.31107,5.61869 6.26889,10.55529 9,16 4.77961,5.56734 7.84391,11.84519 13.88854,16.88854 4.62197,4.63685 8.29092,8.46285 11.37539,12.41635 4.31408,0.84797 9.2802,5.86458 14,7.95904 4.9439,3.94017 10.78415,5.71638 16,9 4.76687,1.92911 9.72174,3.40436 14.73607,4.73607 4.82238,1.76213 10.3744,1.76278 15.30489,3.26393 6.09663,0.4626 11.95116,1.50968 18.45053,1 27.50284,0 55.00567,0 82.50851,0 2.35053,-5.16445 0.32181,-12.14284 1,-18 -2.95974,-4.68024 0.30305,-12.40068 -1.73607,-13.73607 C 436.25207,403.03004 436.79832,397.32234 434,393 c -0.65259,-5.08671 -4.30102,-8.9325 -5,-14 -3.38439,-4.38303 -6.06407,-9.05796 -8.73607,-13.73607 C 415.33141,357.55928 407.82258,350.92177 401,344 c -4.76418,-2.76457 -9.04284,-6.70132 -14,-9 -4.5476,-3.12516 -9.64655,-4.91923 -14.73607,-6.73607 -4.4258,-2.24817 -9.59538,-2.70069 -14.30489,-4.26393 -6.11982,-2.9391 -6.70575,-0.76714 -14.08191,-2 -37.29238,0 -74.58475,0 -111.87713,0 z M 69,76 c -1.680538,7.44197 -0.79064,15.948649 -1,24 1.685246,4.88474 -1.089456,11.48299 0,17.49149 0,16.1695 0,32.33901 0,48.50851 3.122353,5.38852 -1.191268,11.32737 0,17.2867 0.565024,5.78946 1.569428,11.17945 0,16.83617 -1.077991,5.9984 2.715176,11.52763 0,16.91809 0,10.31968 0,20.63936 0,30.95904 0.851326,4.52138 -0.590332,11.76794 0,17.5734 0,18.47553 0,36.95107 0,55.4266 1.624125,4.49228 0.164336,9.86157 2,15.08191 0.259581,5.62638 1.730167,10.75113 3.736068,15.65416 -2.084961,1.89583 3.740011,6.75271 2.304889,10.26393 4.148693,2.13311 3.594149,8.60593 6.959043,12 2.483046,4.8808 6.122001,9.2828 9,14 -1.371034,3.24114 8.50028,6.29002 8,12 5.01635,1.29193 9.15543,9.51663 12,9 0.85601,3.97513 3.05995,3.19694 8,6 4.21536,3.28481 8.45516,6.51062 13,9 5.20036,1.88257 9.78314,5.25614 15.04096,7 4.82232,1.76228 9.73908,3.29658 14.69511,4.73607 5.44172,0.90313 10.57184,2.55851 16.50967,2.26393 8.45172,2.28326 18.6413,0.37093 27.77819,1 32.32536,0 64.65071,0 96.97607,0 0.38406,-2.82918 -8.4633,-3.7636 -11.73607,-5.73607 C 287.77498,431.33925 282.862,430.43827 279,427 c -5.57412,-1.6469 -9.48533,-7.30845 -14.73607,-9.73607 C 257.46029,412.09899 251.37643,405.19632 245,399 c -2.97281,-3.4237 -6.81267,-8.71891 -10,-13 -1.11563,-5.04664 -4.64842,-9.09205 -6.73607,-13.73607 -1.29644,-4.95809 -4.02689,-9.32219 -5.26393,-14.30489 -3.05236,-4.72217 -0.11371,-10.73929 -3,-14 -1.06208,-5.59844 -2.4499,-11.06197 -2,-17.2867 0,-47.89078 0,-95.78156 0,-143.67234 -1.84789,-5.00943 -1.57853,-10.89586 -3,-16.08191 -3.41856,-5.47388 0.67979,-10.02794 -3,-11.95905 -0.061,-4.78299 -3.99041,-7.30874 -4.04096,-10.95904 -4.03836,-2.53932 -4.91196,-8.78425 -8.43118,-12.47214 -2.86371,-5.33259 -7.45656,-9.94895 -11,-15 C 182.07549,109.40977 174.95206,103.91174 168,98 163.13481,96.112993 158.99057,92.485442 154.26393,90.263932 151.76257,83.832182 145.39144,88.038375 143,83 c -4.59244,3.164373 -9.98011,-4.223803 -13.04096,-3 -5.91458,-0.06815 -11.14542,-1.786991 -16.69511,-2.736068 C 106.57139,77.167844 100.5767,75.386973 93.590427,76 85.393618,76 77.196809,76 69,76 Z"
     fill="#101c34"
     fill-rule="evenodd"
     clip-rule="evenodd"
     id="path1" />
</svg>
